<svg width="637" height="171" viewBox="0 0 637 171" fill="none" xmlns="http://www.w3.org/2000/svg">
<path d="M18.2798 75.4355C21.4517 75.4355 24.1227 76.0616 26.2929 77.3136C28.4631 78.4822 29.5482 79.9012 29.5482 81.5706V116.878C29.5482 117.796 29.2144 118.965 28.5466 120.384C27.9623 121.719 26.7103 123.013 24.7905 124.265C22.8707 125.434 20.1579 126.018 16.6522 126.018H10.0164V164.331H2.7545V80.5689L0 79.0665V75.4355H18.2798ZM11.7692 117.629C11.7692 117.88 11.8944 118.13 12.1448 118.381C12.4787 118.548 12.8543 118.631 13.2717 118.631L18.6555 117.379C19.1563 117.379 19.4067 117.129 19.4067 116.628L20.6587 85.0763C20.5753 83.9912 20.1162 83.073 19.2815 82.3218C18.4468 81.4871 17.153 81.0697 15.4001 81.0697H13.2717C12.27 81.0697 11.7692 81.3619 11.7692 81.9462V117.629Z" fill="black"/>
<path d="M66.0717 164.331H40.7804V75.4355H50.0456V151.184L51.9236 154.064L66.0717 155.692V164.331Z" fill="black"/>
<path d="M102.27 164.331H95.0077L91.7523 129.524H85.3669L79.6075 164.331H73.7229L79.3571 75.4355H102.27V164.331ZM94.3816 80.1933C94.3816 79.6925 94.1312 79.4421 93.6304 79.4421H88.2466C87.7458 79.4421 87.4954 79.6925 87.4954 80.1933V123.013C87.4954 123.431 87.7458 123.639 88.2466 123.639H93.6304C94.1312 123.639 94.3816 123.389 94.3816 122.888V80.1933Z" fill="black"/>
<path d="M123.518 111.62L139.419 115.751V156.818C139.419 158.571 138.543 160.282 136.79 161.952C135.037 163.538 133.242 164.331 131.406 164.331H113.502V155.817H130.905L127.9 122.262L113.502 118.506V81.3202C113.502 79.9846 114.003 78.6909 115.004 77.4388C116.089 76.1033 117.258 75.4355 118.51 75.4355H139.419V81.5706L121.64 83.9494L123.518 111.62Z" fill="black"/>
<path d="M175.116 77.1884L175.742 85.0763H164.724V164.331H154.082L156.586 87.33L147.571 84.3251L149.199 75.4355L175.116 77.1884Z" fill="black"/>
<path d="M195.698 161.827H185.181V75.4355H193.069L195.698 161.827Z" fill="black"/>
<path d="M290.168 93.0894L287.664 83.3234L280.152 84.1999L278.274 111.995L296.428 115.251L294.675 156.818C294.675 158.488 293.59 160.157 291.42 161.827C289.25 163.496 287.247 164.331 285.41 164.331H270.761L269.635 142.921H277.022L276.896 153.814L285.661 155.817L287.664 122.512L270.761 118.756V78.4405L275.77 75.4355H295.427L294.801 93.0894H290.168Z" fill="black"/>
<path d="M353.246 164.331H329.582V75.4355H341.727L339.098 154.064L353.246 156.318V164.331Z" fill="black"/>
<path d="M365.85 164.331L358.463 75.4355H366.351L373.863 161.201H374.489L382.878 76.6876H391.142L378.997 164.331H365.85Z" fill="black"/>
<path d="M425.228 164.331H398.435V75.4355H425.228V83.1982L409.578 82.447V110.868L425.228 113.748V119.758L407.449 119.007V154.94L425.228 153.939V164.331Z" fill="black"/>
<path d="M446.398 164.331H439.136V80.5689L436.381 79.0665V75.4355H455.913C459.085 75.4355 461.714 76.0616 463.801 77.3136C465.971 78.4822 467.098 79.9012 467.182 81.5706L465.93 116.252C465.93 117.504 465.345 119.048 464.177 120.885C463.092 122.638 461.047 123.931 458.042 124.766L465.429 138.539L468.058 164.331L458.918 164.706L456.915 140.166L450.029 125.392H446.398V164.331ZM448.151 116.377C448.151 116.628 448.276 116.878 448.526 117.129C448.86 117.296 449.236 117.379 449.653 117.379H456.289C456.79 117.379 457.04 117.129 457.04 116.628L457.791 84.9511C457.791 83.7825 457.249 82.8226 456.164 82.0714C455.162 81.2367 452.992 80.8193 449.653 80.8193C448.651 81.1532 448.151 81.654 448.151 82.3218V116.377Z" fill="black"/>
<path d="M508.291 163.079L498.775 101.728H498.274L495.395 164.331H482.248L473.609 75.4355H481.747L488.133 159.698H488.634L494.769 77.9396H503.783L503.032 96.8455L513.424 160.199H514.05L516.805 76.6876H524.442L520.31 163.079H508.291Z" fill="black"/>
<path d="M557.114 164.331H549.852L546.597 129.524H540.211L534.452 164.331H528.567L534.201 75.4355H557.114V164.331ZM549.226 80.1933C549.226 79.6925 548.975 79.4421 548.475 79.4421H543.091C542.59 79.4421 542.34 79.6925 542.34 80.1933V123.013C542.34 123.431 542.59 123.639 543.091 123.639H548.475C548.975 123.639 549.226 123.389 549.226 122.888V80.1933Z" fill="black"/>
<path d="M576.86 164.331H569.598V80.5689L566.843 79.0665V75.4355H586.375C589.547 75.4355 592.177 76.0616 594.263 77.3136C596.433 78.4822 597.56 79.9012 597.644 81.5706L596.392 116.252C596.392 117.504 595.807 119.048 594.639 120.885C593.554 122.638 591.509 123.931 588.504 124.766L595.891 138.539L598.52 164.331L589.38 164.706L587.377 140.166L580.491 125.392H576.86V164.331ZM578.613 116.377C578.613 116.628 578.738 116.878 578.988 117.129C579.322 117.296 579.698 117.379 580.115 117.379H586.751C587.252 117.379 587.502 117.129 587.502 116.628L588.253 84.9511C588.253 83.7825 587.711 82.8226 586.626 82.0714C585.624 81.2367 583.454 80.8193 580.115 80.8193C579.113 81.1532 578.613 81.654 578.613 82.3218V116.377Z" fill="black"/>
<path d="M637 164.331H610.206V75.4355H637V83.1982L621.349 82.447V110.868L637 113.748V119.758L619.221 119.007V154.94L637 153.939V164.331Z" fill="black"/>
<path d="M237.617 164.331H219.713C215.456 164.331 212.284 163.621 210.198 162.202C208.111 160.7 207.068 158.822 207.068 156.568V82.447C207.068 80.4437 207.944 78.7743 209.697 77.4388C211.45 76.1033 213.912 75.4355 217.084 75.4355H237.617V82.447L235.614 98.0975H227.351L226.099 83.9494C226.099 83.1982 225.598 82.8226 224.596 82.8226H219.338C217.752 82.8226 216.583 83.4904 215.832 84.8259C215.164 86.0779 214.83 87.4969 214.83 89.0828C214.83 90.001 214.955 90.5435 215.206 90.7105L217.71 153.187L218.086 153.563L218.461 153.939H225.848C226.85 153.939 227 154 227.351 153.187L229.855 143.422H237.617V164.331Z" fill="black"/>
<path d="M295.159 66.5148L293.855 14.3463L295.811 10.4337L297.767 14.3463L299.072 45.6474L301.028 50.2122L302.984 52.1685L304.288 5.21685L305.593 0L308.201 1.30421L309.505 54.7769L310.81 56.7333L312.114 50.8643L313.418 1.30421L315.374 0.652106L317.331 2.60843L318.635 53.4727L319.939 55.429L321.243 52.1685L323.852 7.82528L325.808 6.52106L327.764 10.4337V63.9064L317.331 75.6443V170.852H313.011L307.794 169.548L306.49 75.6443L295.159 66.5148Z" fill="black"/>
</svg>
